<?xml version="1.0" encoding="UTF-8"?>
<svg xmlns="http://www.w3.org/2000/svg" viewBox="0 0 37 37" shape-rendering="crispEdges">
<path fill="#000" d="M2 2h7v1h-7ZM11 2h2v1h-2ZM15 2h1v1h-1ZM20 2h4v1h-4ZM25 2h1v1h-1ZM28 2h7v1h-7ZM2 3h1v1h-1ZM8 3h1v1h-1ZM11 3h1v1h-1ZM14 3h5v1h-5ZM20 3h1v1h-1ZM22 3h1v1h-1ZM26 3h1v1h-1ZM28 3h1v1h-1ZM34 3h1v1h-1ZM2 4h1v1h-1ZM4 4h3v1h-3ZM8 4h1v1h-1ZM10 4h2v1h-2ZM13 4h3v1h-3ZM17 4h1v1h-1ZM22 4h2v1h-2ZM25 4h1v1h-1ZM28 4h1v1h-1ZM30 4h3v1h-3ZM34 4h1v1h-1ZM2 5h1v1h-1ZM4 5h3v1h-3ZM8 5h1v1h-1ZM10 5h3v1h-3ZM14 5h1v1h-1ZM16 5h4v1h-4ZM22 5h1v1h-1ZM24 5h2v1h-2ZM28 5h1v1h-1ZM30 5h3v1h-3ZM34 5h1v1h-1ZM2 6h1v1h-1ZM4 6h3v1h-3ZM8 6h1v1h-1ZM10 6h1v1h-1ZM12 6h2v1h-2ZM15 6h1v1h-1ZM17 6h1v1h-1ZM21 6h3v1h-3ZM25 6h1v1h-1ZM28 6h1v1h-1ZM30 6h3v1h-3ZM34 6h1v1h-1ZM2 7h1v1h-1ZM8 7h1v1h-1ZM10 7h2v1h-2ZM13 7h6v1h-6ZM22 7h2v1h-2ZM28 7h1v1h-1ZM34 7h1v1h-1ZM2 8h7v1h-7ZM10 8h1v1h-1ZM12 8h1v1h-1ZM14 8h1v1h-1ZM16 8h1v1h-1ZM18 8h1v1h-1ZM20 8h1v1h-1ZM22 8h1v1h-1ZM24 8h1v1h-1ZM26 8h1v1h-1ZM28 8h7v1h-7ZM10 9h1v1h-1ZM17 9h1v1h-1ZM22 9h4v1h-4ZM2 10h1v1h-1ZM4 10h5v1h-5ZM12 10h2v1h-2ZM15 10h3v1h-3ZM19 10h1v1h-1ZM21 10h1v1h-1ZM24 10h3v1h-3ZM28 10h5v1h-5ZM10 11h2v1h-2ZM13 11h1v1h-1ZM18 11h1v1h-1ZM20 11h6v1h-6ZM28 11h2v1h-2ZM31 11h2v1h-2ZM34 11h1v1h-1ZM2 12h1v1h-1ZM4 12h2v1h-2ZM8 12h3v1h-3ZM17 12h1v1h-1ZM19 12h2v1h-2ZM22 12h3v1h-3ZM30 12h1v1h-1ZM32 12h1v1h-1ZM6 13h2v1h-2ZM9 13h3v1h-3ZM13 13h1v1h-1ZM16 13h1v1h-1ZM20 13h2v1h-2ZM23 13h2v1h-2ZM26 13h1v1h-1ZM30 13h4v1h-4ZM3 14h3v1h-3ZM8 14h2v1h-2ZM11 14h1v1h-1ZM13 14h2v1h-2ZM20 14h3v1h-3ZM26 14h2v1h-2ZM30 14h2v1h-2ZM33 14h2v1h-2ZM2 15h1v1h-1ZM4 15h1v1h-1ZM6 15h2v1h-2ZM9 15h2v1h-2ZM14 15h8v1h-8ZM23 15h3v1h-3ZM27 15h2v1h-2ZM31 15h1v1h-1ZM33 15h2v1h-2ZM2 16h2v1h-2ZM5 16h2v1h-2ZM8 16h7v1h-7ZM16 16h1v1h-1ZM22 16h2v1h-2ZM26 16h3v1h-3ZM31 16h1v1h-1ZM33 16h1v1h-1ZM2 17h1v1h-1ZM4 17h1v1h-1ZM6 17h2v1h-2ZM11 17h2v1h-2ZM14 17h1v1h-1ZM18 17h1v1h-1ZM22 17h2v1h-2ZM27 17h3v1h-3ZM31 17h2v1h-2ZM3 18h3v1h-3ZM7 18h6v1h-6ZM14 18h1v1h-1ZM18 18h2v1h-2ZM21 18h1v1h-1ZM24 18h1v1h-1ZM26 18h2v1h-2ZM29 18h2v1h-2ZM34 18h1v1h-1ZM3 19h2v1h-2ZM7 19h1v1h-1ZM9 19h5v1h-5ZM16 19h1v1h-1ZM18 19h5v1h-5ZM25 19h1v1h-1ZM28 19h2v1h-2ZM31 19h2v1h-2ZM34 19h1v1h-1ZM3 20h7v1h-7ZM11 20h3v1h-3ZM15 20h3v1h-3ZM19 20h1v1h-1ZM22 20h1v1h-1ZM24 20h1v1h-1ZM29 20h2v1h-2ZM32 20h2v1h-2ZM6 21h1v1h-1ZM11 21h3v1h-3ZM15 21h6v1h-6ZM23 21h4v1h-4ZM29 21h6v1h-6ZM3 22h2v1h-2ZM7 22h2v1h-2ZM15 22h4v1h-4ZM24 22h2v1h-2ZM29 22h3v1h-3ZM33 22h2v1h-2ZM2 23h2v1h-2ZM9 23h1v1h-1ZM12 23h1v1h-1ZM14 23h4v1h-4ZM19 23h5v1h-5ZM25 23h1v1h-1ZM28 23h1v1h-1ZM31 23h2v1h-2ZM34 23h1v1h-1ZM2 24h1v1h-1ZM5 24h1v1h-1ZM7 24h6v1h-6ZM14 24h5v1h-5ZM20 24h1v1h-1ZM22 24h2v1h-2ZM27 24h2v1h-2ZM30 24h2v1h-2ZM33 24h1v1h-1ZM2 25h1v1h-1ZM12 25h2v1h-2ZM15 25h1v1h-1ZM17 25h1v1h-1ZM21 25h7v1h-7ZM30 25h3v1h-3ZM34 25h1v1h-1ZM2 26h1v1h-1ZM4 26h5v1h-5ZM11 26h3v1h-3ZM17 26h1v1h-1ZM19 26h1v1h-1ZM21 26h1v1h-1ZM26 26h5v1h-5ZM33 26h1v1h-1ZM10 27h2v1h-2ZM18 27h1v1h-1ZM21 27h3v1h-3ZM26 27h1v1h-1ZM30 27h1v1h-1ZM32 27h1v1h-1ZM34 27h1v1h-1ZM2 28h7v1h-7ZM11 28h1v1h-1ZM16 28h3v1h-3ZM20 28h1v1h-1ZM24 28h3v1h-3ZM28 28h1v1h-1ZM30 28h1v1h-1ZM32 28h2v1h-2ZM2 29h1v1h-1ZM8 29h1v1h-1ZM10 29h1v1h-1ZM12 29h1v1h-1ZM16 29h2v1h-2ZM23 29h1v1h-1ZM25 29h2v1h-2ZM30 29h5v1h-5ZM2 30h1v1h-1ZM4 30h3v1h-3ZM8 30h1v1h-1ZM10 30h2v1h-2ZM14 30h3v1h-3ZM20 30h2v1h-2ZM24 30h1v1h-1ZM26 30h6v1h-6ZM2 31h1v1h-1ZM4 31h3v1h-3ZM8 31h1v1h-1ZM10 31h1v1h-1ZM14 31h1v1h-1ZM16 31h3v1h-3ZM21 31h2v1h-2ZM24 31h4v1h-4ZM30 31h2v1h-2ZM33 31h2v1h-2ZM2 32h1v1h-1ZM4 32h3v1h-3ZM8 32h1v1h-1ZM10 32h1v1h-1ZM14 32h2v1h-2ZM19 32h2v1h-2ZM24 32h1v1h-1ZM26 32h1v1h-1ZM28 32h2v1h-2ZM31 32h1v1h-1ZM2 33h1v1h-1ZM8 33h1v1h-1ZM11 33h1v1h-1ZM14 33h2v1h-2ZM18 33h1v1h-1ZM20 33h2v1h-2ZM23 33h1v1h-1ZM25 33h1v1h-1ZM27 33h2v1h-2ZM30 33h1v1h-1ZM32 33h1v1h-1ZM2 34h7v1h-7ZM10 34h3v1h-3ZM15 34h2v1h-2ZM19 34h1v1h-1ZM24 34h4v1h-4ZM29 34h1v1h-1ZM33 34h1v1h-1Z"/>
</svg>
