<svg xmlns="http://www.w3.org/2000/svg" viewBox="0 0 512 512" role="img" aria-labelledby="title description">
<title id="title">Default — MakanApa Local Favorites avatar</title>
<desc id="description">A neutral smiling sage-green MakanApa mascot with a cream face, tiny arms and feet, and rosy cheeks.</desc>
<defs>
<radialGradient id="blush"><stop offset="0" stop-color="#efa6a1" stop-opacity=".76"/><stop offset="1" stop-color="#efa6a1" stop-opacity="0"/></radialGradient>
<linearGradient id="shine" x1="0" y1="0" x2="1" y2="1"><stop offset="0" stop-color="#fff" stop-opacity=".75"/><stop offset="1" stop-color="#fff" stop-opacity="0"/></linearGradient>

    <radialGradient id="body" cx="30%" cy="20%" r="85%"><stop offset="0" stop-color="#d8e7bd"/><stop offset=".55" stop-color="#a9ca93"/><stop offset="1" stop-color="#6b9b6b"/></radialGradient>
    <radialGradient id="belly" cx="36%" cy="22%" r="85%"><stop offset="0" stop-color="#fffdf4"/><stop offset="1" stop-color="#e5dec8"/></radialGradient>
    <linearGradient id="feet" x1="0" y1="0" x2="1" y2="1"><stop offset="0" stop-color="#8fba80"/><stop offset="1" stop-color="#568a61"/></linearGradient>
    </defs>

    <path d="M201 419c-14 3-25 15-27 29-2 12 8 21 24 22 17 1 35-5 41-15 8-13-2-31-18-35-7-2-14-2-20-1Z" fill="url(#feet)" stroke="#4c7b55" stroke-width="3"/>
    <path d="M311 419c14 3 25 15 27 29 2 12-8 21-24 22-17 1-35-5-41-15-8-13 2-31 18-35 7-2 14-2 20-1Z" fill="url(#feet)" stroke="#4c7b55" stroke-width="3"/>
    <path d="M187 442c-3 7 1 12 11 13m127-13c3 7-1 12-11 13" fill="none" stroke="#b7d6a4" stroke-opacity=".55" stroke-width="5" stroke-linecap="round"/>
    
    <path d="M108 290c-19-8-35 1-39 17-4 16 3 34 19 42 14 7 28-1 34-15l12-32Z" fill="#accb96" stroke="#729c72" stroke-width="3"/>
    <path d="M404 290c19-8 35 1 39 17 4 16-3 34-19 42-14 7-28-1-34-15l-12-32Z" fill="#accb96" stroke="#729c72" stroke-width="3"/>
    <path d="M79 314c-2 10 2 19 9 23m433 314c2 10-2 19-9 23" fill="none" stroke="#fff" stroke-opacity=".55" stroke-width="5" stroke-linecap="round"/>
    
    <path d="M256 132c-77 0-142 64-147 141-5 77 38 166 147 171 109-5 152-94 147-171-5-77-70-141-147-141Z" fill="url(#body)" stroke="#68956b" stroke-width="3"/>
    <path d="M256 182c-64 0-112 45-112 112 0 67 44 124 112 124s112-57 112-124c0-67-48-112-112-112Z" fill="url(#belly)" stroke="#d9dcc7" stroke-width="2"/>
    <path d="M137 257c6-36 30-69 59-85" fill="none" stroke="#e4f0cf" stroke-opacity=".8" stroke-width="14" stroke-linecap="round"/>
    <path d="M214 144c13-21 28-32 43-34 15 2 30 13 43 34-21 13-65 13-86 0Z" fill="#6dad71" stroke="#518e5d" stroke-width="3"/>
    <path d="M236 136c12-5 27-6 41 0" fill="none" stroke="#cce6a7" stroke-width="5" stroke-linecap="round"/>
    
    <ellipse cx="188" cy="326" rx="20" ry="14" fill="url(#blush)"/>
    <ellipse cx="324" cy="326" rx="20" ry="14" fill="url(#blush)"/>
    <circle cx="211" cy="297" r="12" fill="#342f2e"/>
    <circle cx="301" cy="297" r="12" fill="#342f2e"/>
    <circle cx="207" cy="293" r="3.5" fill="#fffdfa"/>
    <circle cx="297" cy="293" r="3.5" fill="#fffdfa"/>
    <path d="M231 335c12 17 38 17 50 0" fill="none" stroke="#795245" stroke-width="7" stroke-linecap="round"/>
    
</svg>
